<svg id="svg" version="1.1" width="400" height="282.8125" viewBox="0, 0, 400,282.8125" xmlns="http://www.w3.org/2000/svg">
  <g id="svgg">
    <path id="path1" d="M231.400 56.428 C 232.069 57.150,232.204 57.182,233.872 57.004 C 235.675 56.812,236.336 57.015,239.321 58.675 C 239.710 58.892,240.403 59.240,240.861 59.449 C 241.319 59.659,242.418 60.499,243.303 61.315 C 245.024 62.903,245.545 63.122,245.545 62.259 C 245.545 61.511,243.179 59.486,241.301 58.627 C 240.446 58.236,239.554 57.805,239.321 57.670 C 238.028 56.922,235.570 56.295,232.249 55.866 L 230.693 55.665 231.400 56.428 M226.677 56.392 C 226.829 56.789,226.642 56.860,225.444 56.860 L 224.032 56.860 224.496 57.567 C 225.049 58.412,226.503 58.530,227.590 57.818 C 228.077 57.499,228.585 57.418,229.281 57.549 C 230.331 57.746,230.953 57.149,230.339 56.534 C 229.786 55.982,226.470 55.853,226.677 56.392 M221.122 58.463 C 220.708 58.877,220.995 59.058,222.348 59.238 C 223.979 59.454,225.513 58.943,224.463 58.533 C 223.763 58.259,221.376 58.209,221.122 58.463 M221.453 60.273 C 221.870 60.440,222.289 60.436,222.585 60.263 C 222.944 60.054,222.786 59.991,221.924 59.998 C 220.934 60.006,220.875 60.041,221.453 60.273 M217.751 61.831 C 216.654 62.426,216.688 63.154,217.794 62.768 C 218.925 62.374,219.848 61.381,219.068 61.397 C 218.771 61.404,218.179 61.599,217.751 61.831 M246.245 63.104 C 246.082 63.617,246.380 64.202,247.242 65.064 C 247.320 65.141,247.427 65.460,247.481 65.771 C 247.681 66.933,247.961 66.761,248.232 65.311 C 248.399 64.417,248.313 64.172,247.559 63.402 C 246.537 62.356,246.486 62.344,246.245 63.104 M215.347 63.994 C 214.996 64.163,214.710 64.473,214.710 64.683 C 214.710 65.310,215.663 65.097,216.208 64.348 C 216.768 63.579,216.465 63.455,215.347 63.994 M213.153 66.763 C 212.870 67.075,212.722 67.414,212.824 67.515 C 213.030 67.722,214.144 66.809,214.144 66.434 C 214.144 66.021,213.686 66.173,213.153 66.763 M248.730 67.287 C 248.861 67.795,248.771 67.989,248.355 68.098 C 248.007 68.189,247.808 68.487,247.808 68.916 C 247.808 69.394,247.648 69.590,247.259 69.590 C 246.957 69.590,246.631 69.717,246.535 69.873 C 246.438 70.028,246.128 70.156,245.844 70.156 C 245.560 70.156,245.261 70.410,245.180 70.721 C 245.098 71.033,244.833 71.287,244.590 71.287 C 244.294 71.287,244.208 71.443,244.328 71.756 C 244.479 72.151,244.369 72.198,243.632 72.050 C 243.061 71.936,242.715 71.995,242.638 72.218 C 242.549 72.478,242.317 72.485,241.666 72.245 C 241.114 72.042,240.641 72.025,240.334 72.197 C 239.801 72.495,239.038 72.035,239.038 71.416 C 239.038 70.111,235.240 67.721,233.558 67.968 C 233.076 68.039,232.466 67.963,232.203 67.798 C 231.863 67.586,231.515 67.595,230.997 67.831 C 230.140 68.222,230.036 68.741,230.814 68.741 C 231.372 68.741,231.679 69.003,232.673 70.330 C 234.774 73.134,236.979 74.438,238.076 73.527 C 238.531 73.149,238.745 73.541,238.707 74.682 C 238.694 75.071,239.041 76.598,239.478 78.076 C 240.150 80.352,240.267 81.233,240.238 83.826 C 240.193 87.870,240.102 87.973,237.232 87.253 C 236.664 87.110,236.492 87.173,236.492 87.522 C 236.492 88.149,236.179 88.095,234.943 87.256 C 233.751 86.448,233.298 86.538,234.099 87.425 C 234.897 88.306,233.403 87.684,231.584 86.377 L 230.186 85.373 230.362 86.251 C 230.458 86.734,230.472 87.129,230.392 87.129 C 229.883 87.129,227.776 85.775,226.190 84.430 C 224.159 82.707,223.764 82.686,225.344 84.386 C 227.106 86.282,228.742 87.346,230.474 87.725 C 231.372 87.921,232.362 88.236,232.673 88.424 C 233.793 89.103,234.535 89.185,234.910 88.673 C 235.246 88.213,235.313 88.216,236.084 88.718 L 236.902 89.250 235.848 89.338 C 234.598 89.442,234.504 89.817,235.573 90.431 L 236.351 90.878 236.390 94.590 C 236.430 98.411,236.549 99.103,238.170 104.950 C 238.958 107.791,239.934 110.042,242.526 114.993 C 247.153 123.834,247.223 124.725,243.992 133.640 C 243.276 135.616,242.267 139.039,241.750 141.247 C 241.233 143.455,240.547 146.216,240.226 147.383 C 239.130 151.362,237.609 161.804,237.620 165.276 C 237.625 167.065,237.169 166.985,236.809 165.134 C 235.521 158.512,233.835 150.541,233.212 148.132 C 232.977 147.221,232.414 144.611,231.962 142.332 C 231.391 139.458,230.608 136.760,229.404 133.522 C 228.450 130.955,227.491 128.203,227.273 127.408 C 227.055 126.612,226.159 124.257,225.282 122.174 C 223.530 118.013,222.021 114.141,221.217 111.740 C 220.931 110.884,220.477 109.675,220.208 109.052 C 219.516 107.446,217.673 102.218,216.568 98.727 C 215.275 94.642,213.183 85.461,212.764 82.037 C 212.557 80.347,212.324 80.618,212.033 82.885 C 211.737 85.184,215.022 98.010,218.625 108.628 C 220.025 112.751,221.313 116.669,221.489 117.335 C 221.799 118.508,224.574 125.175,225.221 126.299 C 226.178 127.962,229.748 139.678,230.137 142.433 C 230.428 144.494,231.623 149.851,231.920 150.426 C 232.060 150.697,232.329 151.620,232.519 152.475 C 232.709 153.331,233.357 155.622,233.961 157.567 C 235.296 161.874,235.523 162.899,235.901 166.341 C 236.064 167.822,236.278 169.436,236.376 169.928 C 236.545 170.775,236.440 170.711,234.364 168.708 C 233.159 167.545,230.439 165.240,228.321 163.586 C 226.203 161.933,222.942 159.354,221.075 157.857 C 216.299 154.026,208.713 149.161,204.102 146.971 C 199.563 144.816,196.565 143.423,196.467 143.423 C 196.409 143.423,195.503 143.025,194.453 142.539 C 191.571 141.206,186.690 139.526,183.931 138.920 C 182.578 138.623,181.102 138.237,180.650 138.063 C 178.106 137.082,169.735 137.148,168.175 138.161 C 167.859 138.366,166.349 138.597,164.745 138.684 C 162.652 138.798,161.508 139.008,160.502 139.463 C 159.554 139.891,158.629 140.075,157.543 140.050 C 156.673 140.030,154.700 140.191,153.158 140.407 C 149.475 140.924,149.245 140.925,147.154 140.441 C 138.341 138.403,125.918 143.200,116.690 152.206 C 114.774 154.076,113.034 155.560,113.020 155.337 C 113.013 155.236,110.034 158.354,104.516 164.238 L 102.242 166.663 101.404 166.220 C 98.772 164.833,78.602 157.532,74.044 156.317 C 73.771 156.244,73.431 156.112,73.287 156.024 C 73.144 155.935,72.945 156.596,72.846 157.493 C 72.748 158.389,72.641 159.314,72.610 159.547 C 72.570 159.852,72.053 160.020,70.777 160.142 C 67.379 160.467,66.152 162.813,68.606 164.293 C 69.857 165.047,69.881 165.089,69.712 166.220 C 69.538 167.388,70.637 168.883,71.670 168.883 C 71.857 168.883,72.648 169.360,73.428 169.943 C 74.208 170.527,75.605 171.251,76.532 171.553 C 78.647 172.241,78.570 172.158,77.835 172.940 C 76.053 174.837,77.049 176.962,80.251 178.100 C 81.614 178.584,81.705 178.674,81.560 179.399 C 81.180 181.301,82.200 182.341,84.589 182.485 C 86.190 182.581,86.563 182.869,86.563 184.009 C 86.563 185.010,87.753 187.003,88.781 187.723 C 89.130 187.968,89.615 188.666,89.859 189.276 C 90.660 191.276,93.891 192.985,94.625 191.796 C 94.911 191.333,95.256 191.473,95.425 192.120 C 95.570 192.675,95.719 192.713,97.139 192.567 C 98.342 192.443,98.777 192.506,99.058 192.844 C 99.380 193.232,99.284 193.259,98.216 193.079 C 97.505 192.958,96.869 192.992,96.666 193.159 C 96.326 193.441,89.456 192.610,88.808 192.209 C 88.649 192.111,88.341 192.178,88.124 192.357 C 87.824 192.607,87.340 192.581,86.086 192.247 C 85.181 192.007,83.550 191.603,82.461 191.349 C 81.372 191.096,80.183 190.701,79.820 190.471 C 79.065 189.995,78.869 190.098,78.799 191.009 C 78.725 191.959,79.425 193.211,80.029 193.211 C 80.581 193.211,84.686 194.450,87.550 195.482 C 88.596 195.859,89.593 196.035,90.158 195.943 C 90.661 195.862,92.625 196.105,94.523 196.483 C 96.421 196.862,98.393 197.171,98.906 197.171 C 99.418 197.171,100.484 197.426,101.273 197.737 C 102.907 198.381,104.387 198.467,104.913 197.949 C 105.200 197.666,105.352 197.704,105.677 198.145 C 106.430 199.165,106.189 199.239,102.900 199.003 C 101.149 198.877,98.687 198.790,97.428 198.811 C 96.169 198.831,93.751 198.674,92.053 198.463 C 89.064 198.090,88.953 198.095,88.519 198.645 C 88.072 199.211,88.054 199.210,81.649 198.296 C 78.118 197.791,75.151 197.456,75.056 197.551 C 74.497 198.110,76.833 199.110,82.320 200.661 C 87.799 202.209,88.497 202.349,90.665 202.332 C 92.249 202.320,93.645 202.519,95.320 202.996 C 98.077 203.781,99.360 203.854,99.859 203.253 C 100.490 202.492,101.435 202.641,107.856 204.513 C 109.532 205.001,111.009 205.335,111.139 205.255 C 111.269 205.175,112.346 205.417,113.532 205.793 C 115.531 206.428,115.795 206.450,117.154 206.097 C 118.489 205.751,118.737 205.767,119.918 206.274 C 121.804 207.084,123.988 207.607,126.828 207.930 C 129.363 208.219,131.535 209.094,131.540 209.830 C 131.543 210.465,121.855 208.788,120.261 207.878 C 119.736 207.578,119.281 207.369,119.249 207.414 C 118.242 208.869,118.466 210.184,119.722 210.184 C 121.871 210.184,133.658 212.470,134.175 212.987 C 134.345 213.157,134.634 213.296,134.817 213.296 C 135.254 213.296,137.290 214.148,137.159 214.276 C 137.104 214.331,135.737 214.084,134.123 213.729 C 131.281 213.103,131.183 213.100,131.049 213.614 C 130.972 213.905,130.738 214.144,130.528 214.144 C 130.304 214.144,130.213 214.320,130.308 214.569 C 130.568 215.246,121.291 214.425,117.263 213.414 C 116.139 213.131,116.442 213.865,117.699 214.469 C 120.693 215.907,131.749 218.694,132.824 218.282 C 133.424 218.052,138.569 218.898,141.018 219.630 C 142.263 220.002,144.173 220.405,145.262 220.527 C 147.262 220.750,147.793 220.761,152.900 220.677 C 157.232 220.606,169.932 221.313,173.409 221.818 C 174.420 221.965,178.239 222.207,181.895 222.355 C 189.315 222.656,192.447 222.803,197.068 223.068 C 198.960 223.176,200.284 223.141,200.384 222.980 C 200.481 222.822,199.471 222.632,197.941 222.520 C 196.506 222.415,192.405 221.954,188.826 221.494 C 181.197 220.515,174.629 219.914,167.099 219.507 C 159.921 219.119,152.379 217.816,149.904 216.536 C 149.185 216.164,148.875 216.141,148.220 216.412 C 147.303 216.792,146.072 216.516,144.057 215.480 C 143.077 214.976,142.752 214.923,142.317 215.194 C 141.774 215.533,139.926 215.232,139.633 214.757 C 139.182 214.027,140.014 213.775,141.864 214.082 C 143.246 214.311,143.935 214.310,144.441 214.080 C 145.072 213.793,148.459 214.024,152.334 214.619 C 152.801 214.690,154.837 214.749,156.860 214.750 C 159.607 214.751,161.042 214.889,162.533 215.295 C 165.192 216.021,169.940 216.679,172.567 216.685 C 173.884 216.688,175.748 216.957,177.460 217.392 C 180.386 218.134,180.950 218.191,184.660 218.117 C 186.237 218.085,187.273 218.206,187.835 218.486 C 189.022 219.078,200.225 218.900,203.983 218.229 C 205.449 217.967,207.284 217.800,208.062 217.858 C 211.922 218.145,215.718 217.902,218.281 217.204 C 220.561 216.583,221.104 216.531,222.948 216.763 C 225.271 217.054,232.257 216.831,234.229 216.403 C 236.223 215.970,245.737 215.697,246.175 216.060 C 246.885 216.650,252.093 217.490,253.695 217.273 C 254.583 217.153,256.200 217.219,257.655 217.435 C 261.363 217.986,263.585 218.144,263.083 217.821 C 262.850 217.671,262.319 217.546,261.904 217.543 C 259.040 217.527,251.845 215.894,252.595 215.431 C 253.546 214.843,257.928 214.911,258.253 215.519 C 258.484 215.950,258.846 216.124,259.512 216.124 C 260.027 216.124,261.064 216.310,261.818 216.537 C 262.999 216.892,263.309 216.895,264.056 216.554 C 266.989 215.213,271.984 215.316,273.318 216.744 C 274.002 217.477,274.364 217.595,276.716 217.856 C 280.613 218.287,282.847 218.819,283.551 219.480 C 284.195 220.085,284.132 220.079,289.816 220.032 C 290.438 220.027,293.748 220.159,297.171 220.325 C 300.594 220.490,305.431 220.700,307.921 220.790 C 310.410 220.880,312.921 221.019,313.501 221.098 C 314.452 221.228,317.039 220.764,316.785 220.509 C 316.385 220.110,302.448 218.499,293.494 217.817 C 289.716 217.530,286.595 216.914,286.271 216.391 C 286.124 216.155,282.896 215.506,279.208 214.972 C 277.746 214.761,277.244 214.553,276.759 213.958 C 276.099 213.150,271.567 212.529,268.388 212.810 C 267.649 212.876,267.044 212.821,267.044 212.688 C 267.044 212.556,267.218 212.447,267.430 212.447 C 267.642 212.447,268.160 212.176,268.580 211.846 C 269.282 211.294,269.474 211.271,270.929 211.563 C 271.800 211.738,272.984 211.881,273.561 211.881 C 274.137 211.881,275.405 212.136,276.379 212.447 C 279.343 213.394,280.339 213.182,280.339 211.605 C 280.339 210.865,280.875 210.750,284.323 210.750 C 288.475 210.750,288.227 210.373,283.805 209.965 C 280.158 209.629,274.054 208.493,273.074 207.969 C 272.711 207.774,272.165 207.784,271.357 208.000 C 269.834 208.406,269.744 208.280,270.278 206.483 C 270.575 205.482,270.721 203.848,270.721 201.532 L 270.721 198.075 271.616 197.763 C 272.107 197.592,272.909 197.147,273.398 196.774 C 274.050 196.277,274.810 196.048,276.252 195.913 C 280.005 195.561,282.189 195.079,284.245 194.147 C 285.381 193.632,286.480 193.211,286.685 193.211 C 287.346 193.211,291.772 189.356,292.504 188.144 C 293.886 185.851,293.740 185.939,294.754 186.791 C 295.251 187.210,295.776 187.553,295.920 187.553 C 296.064 187.553,296.181 188.427,296.181 189.495 C 296.181 193.875,299.139 194.514,305.207 191.446 C 306.314 190.886,306.838 190.753,307.096 190.968 C 307.299 191.136,307.879 191.184,308.436 191.080 C 309.131 190.949,309.631 191.036,310.152 191.377 C 311.199 192.063,312.152 191.693,311.245 190.952 C 310.895 190.666,310.608 190.219,310.608 189.958 C 310.608 189.554,310.430 189.516,309.406 189.705 C 308.745 189.826,307.827 189.904,307.366 189.878 C 306.888 189.850,306.281 190.055,305.952 190.356 C 304.641 191.551,303.532 191.921,299.415 192.535 C 297.578 192.809,296.708 191.595,296.942 189.085 C 297.100 187.393,297.067 187.227,296.541 187.089 C 296.225 187.007,295.827 186.632,295.656 186.256 C 295.485 185.880,295.206 185.573,295.037 185.573 C 294.500 185.573,292.798 184.119,292.430 183.346 C 292.147 182.752,291.792 182.556,290.663 182.371 C 283.803 181.244,281.806 179.585,279.028 172.702 L 277.543 169.024 278.302 168.230 C 280.909 165.505,283.848 165.305,285.497 167.742 C 286.363 169.022,287.920 170.422,290.696 172.419 C 295.553 175.911,298.029 178.522,301.182 183.473 L 301.917 184.626 304.102 184.500 C 306.254 184.375,306.305 184.388,307.387 185.327 C 307.992 185.851,308.741 186.442,309.052 186.640 C 309.364 186.838,310.032 187.265,310.537 187.587 C 311.500 188.202,311.797 188.797,310.986 188.486 C 310.470 188.288,310.621 188.694,311.402 189.604 C 312.315 190.667,313.215 189.105,312.400 187.872 C 312.129 187.463,311.942 186.794,311.983 186.385 C 312.068 185.544,311.026 185.007,309.309 185.007 C 308.797 185.007,307.956 184.759,307.442 184.456 C 306.927 184.152,305.627 183.739,304.553 183.536 C 302.367 183.125,302.853 183.597,298.980 178.114 C 297.331 175.779,297.114 175.347,297.655 175.477 C 299.599 175.941,301.125 175.958,303.893 175.547 C 307.198 175.056,308.235 175.274,309.556 176.734 C 311.831 179.250,316.452 177.723,317.004 174.272 C 317.104 173.647,317.288 173.200,317.413 173.277 C 317.732 173.474,318.527 172.272,318.538 171.578 C 318.545 171.072,318.579 171.060,318.821 171.474 C 318.971 171.733,319.318 171.902,319.590 171.850 C 319.862 171.797,320.174 171.745,320.283 171.733 C 320.579 171.701,323.082 168.118,322.999 167.846 C 322.960 167.716,323.275 167.241,323.699 166.790 C 324.554 165.881,324.710 164.792,324.022 164.528 C 323.393 164.287,321.494 164.314,321.240 164.569 C 321.123 164.685,319.861 164.800,318.435 164.824 C 315.853 164.868,313.053 165.435,309.661 166.604 C 307.778 167.253,308.032 167.309,302.263 164.976 C 300.707 164.347,298.101 163.489,296.472 163.069 C 294.842 162.650,293.187 162.106,292.794 161.861 C 292.401 161.616,292.048 161.400,292.011 161.380 C 291.937 161.341,289.808 155.829,288.646 152.667 C 287.972 150.833,286.895 148.444,284.163 142.716 C 282.125 138.442,281.031 136.041,279.911 133.380 C 279.322 131.980,278.744 130.707,278.628 130.552 C 278.392 130.237,276.425 125.559,273.686 118.797 C 272.692 116.344,270.776 111.911,269.428 108.946 C 266.755 103.067,266.631 102.378,268.381 103.138 C 271.510 104.496,272.687 104.274,273.628 102.150 C 274.392 100.427,274.190 98.527,273.098 97.151 C 272.647 96.582,272.165 95.963,272.028 95.775 C 271.789 95.449,272.924 93.324,273.699 92.645 C 273.877 92.489,274.107 92.020,274.212 91.601 L 274.401 90.841 272.490 90.946 C 271.440 91.004,269.835 91.320,268.925 91.648 L 267.271 92.245 266.379 91.565 C 261.026 87.482,254.466 79.641,255.349 78.381 C 257.341 75.537,255.349 70.394,251.543 68.557 C 250.655 68.128,249.866 67.708,249.788 67.623 C 249.026 66.789,248.564 66.643,248.730 67.287 M212.577 68.760 C 212.269 69.259,212.593 69.328,213.175 68.889 C 213.653 68.527,213.662 68.475,213.242 68.467 C 212.978 68.462,212.679 68.594,212.577 68.760 M250.956 69.708 C 253.962 70.973,255.559 74.788,254.173 77.396 C 253.784 78.128,253.465 78.898,253.465 79.109 C 253.465 79.541,252.736 79.630,252.487 79.227 C 252.398 79.083,252.645 78.619,253.036 78.196 C 253.831 77.339,253.910 76.556,253.417 74.420 C 253.129 73.176,252.617 72.437,252.617 73.267 C 252.617 73.423,252.489 73.550,252.334 73.550 C 252.178 73.550,252.051 73.286,252.051 72.963 C 252.051 72.547,251.723 72.239,250.922 71.903 C 250.183 71.592,249.793 71.247,249.791 70.902 C 249.788 70.451,249.642 70.403,248.771 70.566 L 247.754 70.757 248.276 70.041 C 248.872 69.223,249.590 69.134,250.956 69.708 M211.735 71.013 C 211.276 71.901,211.370 72.419,211.992 72.419 C 212.481 72.419,213.128 71.147,212.918 70.599 C 212.656 69.917,212.223 70.069,211.735 71.013 M237.634 70.875 C 237.895 71.190,237.910 71.397,237.687 71.620 C 237.203 72.104,236.513 71.692,236.689 71.022 C 236.870 70.326,237.143 70.284,237.634 70.875 M246.935 70.807 C 246.126 71.395,245.262 71.815,245.262 71.620 C 245.262 71.374,246.303 70.777,246.794 70.741 C 246.937 70.730,247.000 70.760,246.935 70.807 M211.327 74.527 C 210.881 75.064,211.058 75.925,211.638 76.036 C 211.933 76.093,212.161 75.863,212.280 75.390 C 212.574 74.218,212.008 73.706,211.327 74.527 M246.676 76.773 C 246.676 78.477,250.948 81.312,252.866 80.881 C 254.097 80.605,254.107 80.609,255.119 81.815 C 257.827 85.043,265.379 92.184,266.467 92.547 C 266.641 92.605,266.813 93.098,266.848 93.642 C 266.884 94.209,267.264 95.112,267.739 95.759 C 268.194 96.380,268.864 97.298,269.227 97.799 C 270.460 99.498,269.046 101.656,267.236 100.838 C 266.741 100.615,264.173 99.586,261.528 98.553 C 251.846 94.771,246.709 91.294,244.179 86.811 C 243.055 84.820,243.037 85.076,244.563 81.263 C 245.268 79.501,245.921 77.681,246.013 77.219 C 246.182 76.373,246.676 76.041,246.676 76.773 M211.491 78.305 C 211.083 78.964,210.962 81.542,211.345 81.414 C 211.562 81.342,211.786 81.039,211.843 80.740 C 211.900 80.442,212.061 80.126,212.200 80.038 C 212.340 79.950,212.373 79.472,212.273 78.977 C 212.099 78.106,211.782 77.833,211.491 78.305 M249.258 81.003 C 248.818 81.534,248.969 82.493,249.475 82.382 C 249.674 82.339,249.904 82.562,249.987 82.877 C 250.069 83.193,250.256 83.451,250.401 83.451 C 250.547 83.451,251.764 84.536,253.105 85.863 C 254.447 87.189,255.681 88.229,255.848 88.173 C 256.586 87.928,256.236 87.024,254.815 85.503 C 253.978 84.608,253.085 83.541,252.830 83.132 C 252.575 82.724,252.030 82.305,251.620 82.202 C 251.209 82.099,250.592 81.688,250.248 81.288 C 249.694 80.643,249.583 80.612,249.258 81.003 M242.814 90.038 C 243.771 90.860,245.446 92.128,246.535 92.855 C 247.624 93.582,249.030 94.544,249.660 94.992 C 250.290 95.440,251.690 96.290,252.772 96.882 C 253.853 97.473,255.297 98.273,255.979 98.660 L 257.220 99.362 255.588 100.237 C 254.495 100.824,253.580 101.611,252.816 102.624 C 252.051 103.637,251.411 104.187,250.873 104.295 C 249.946 104.480,249.790 104.950,250.656 104.950 C 251.129 104.950,251.203 105.069,251.043 105.572 C 250.852 106.175,250.873 106.172,251.700 105.476 C 252.520 104.785,254.454 104.615,255.944 105.102 C 256.287 105.214,254.738 108.490,253.476 110.325 C 252.499 111.745,249.476 117.884,248.623 120.182 C 247.615 122.894,247.613 122.894,246.276 119.567 C 245.724 118.192,244.690 115.992,243.979 114.678 C 238.621 104.767,236.284 92.401,239.179 89.278 C 240.165 88.214,240.859 88.359,242.814 90.038 M272.542 92.574 C 271.853 94.793,270.894 95.097,269.101 93.666 C 267.978 92.770,267.969 92.694,268.953 92.305 C 270.538 91.679,272.768 91.846,272.542 92.574 M270.559 96.105 C 272.863 98.022,273.731 100.509,272.489 101.634 C 272.024 102.055,272.000 102.010,272.087 100.899 C 272.281 98.412,272.264 98.368,270.537 96.818 C 269.627 96.001,268.787 95.333,268.670 95.333 C 268.554 95.333,268.458 95.201,268.458 95.040 C 268.458 94.671,269.425 95.162,270.559 96.105 M260.054 99.862 C 260.242 100.019,260.746 100.410,261.174 100.731 C 262.146 101.460,262.153 101.727,261.204 101.965 C 260.647 102.105,260.538 102.235,260.776 102.473 C 261.014 102.711,260.977 102.924,260.631 103.306 C 260.139 103.849,253.182 104.114,253.182 103.589 C 253.182 102.702,255.642 101.256,257.547 101.024 C 258.669 100.887,259.042 100.710,259.261 100.212 C 259.581 99.483,259.595 99.477,260.054 99.862 M263.382 101.336 C 264.292 102.332,264.496 103.139,263.768 102.859 C 263.521 102.765,263.201 102.687,263.055 102.687 C 262.909 102.687,262.865 102.386,262.958 102.019 C 263.073 101.558,262.987 101.296,262.680 101.179 C 262.435 101.085,262.235 100.877,262.235 100.716 C 262.235 100.232,262.509 100.380,263.382 101.336 M257.781 101.867 C 254.339 102.314,253.920 102.976,257.089 102.961 C 258.897 102.953,259.972 102.567,259.972 101.925 C 259.972 101.609,259.801 101.604,257.781 101.867 M262.312 103.838 C 262.228 104.159,262.299 104.700,262.471 105.040 C 262.643 105.380,263.044 107.058,263.364 108.769 C 263.683 110.481,264.124 112.454,264.343 113.154 C 264.562 113.854,265.016 115.955,265.351 117.822 C 265.685 119.689,266.201 122.008,266.497 122.977 C 266.793 123.945,267.296 126.109,267.615 127.786 C 268.816 134.103,269.371 136.862,270.019 139.745 C 270.386 141.379,270.890 143.798,271.140 145.120 C 271.678 147.972,272.847 153.347,273.447 155.728 C 273.682 156.662,274.132 158.699,274.448 160.255 C 276.205 168.921,277.485 173.061,279.479 176.521 C 280.062 177.532,280.957 179.155,281.469 180.127 C 282.354 181.811,283.227 182.427,283.513 181.569 C 283.590 181.337,283.822 181.365,284.314 181.666 C 284.695 181.899,285.580 182.258,286.280 182.466 C 288.398 183.092,288.207 183.557,285.926 183.325 C 285.362 183.267,285.250 183.764,285.785 183.955 C 286.709 184.285,285.581 184.477,284.499 184.175 C 279.397 182.746,273.549 173.708,272.590 165.771 C 271.986 160.764,271.230 158.800,271.447 162.801 C 271.730 168.018,272.512 171.789,273.679 173.570 C 274.063 174.157,275.530 177.586,275.530 177.898 C 275.530 178.631,269.896 171.674,268.788 169.572 C 268.252 168.557,268.199 168.523,268.188 169.185 C 268.159 170.886,271.163 174.999,275.941 179.799 C 281.011 184.894,284.552 186.140,288.719 184.297 C 290.804 183.375,291.408 183.402,292.186 184.455 C 293.804 186.644,289.160 190.713,282.627 192.831 C 277.801 194.395,271.250 195.135,269.184 194.349 C 268.143 193.953,268.253 194.509,269.348 195.175 L 270.238 195.716 269.259 195.899 C 264.468 196.798,259.708 194.404,257.094 189.780 C 256.887 189.415,256.253 188.569,255.684 187.900 C 255.115 187.232,254.127 185.804,253.487 184.728 C 251.843 181.961,250.916 181.517,252.027 184.029 C 252.351 184.762,252.617 185.777,252.617 186.285 C 252.617 186.969,252.930 187.566,253.823 188.583 C 255.972 191.030,255.966 191.018,254.702 190.491 C 250.991 188.941,247.906 187.123,245.066 184.809 C 243.103 183.210,242.674 183.345,244.168 185.091 C 245.635 186.806,245.465 187.083,243.921 185.496 C 242.847 184.392,240.751 179.655,240.300 177.309 C 240.237 176.985,240.062 176.325,239.909 175.843 C 238.899 172.643,238.959 165.117,240.051 157.992 C 240.642 154.129,242.397 145.574,242.877 144.214 C 243.093 143.603,243.662 141.508,244.142 139.557 C 244.934 136.336,245.689 134.006,247.245 129.986 C 247.546 129.208,248.259 127.044,248.830 125.177 C 250.586 119.437,253.219 113.246,254.940 110.812 C 255.246 110.379,255.992 109.010,256.598 107.771 C 257.586 105.748,258.895 104.504,258.449 106.011 C 258.213 106.807,256.977 111.894,256.164 115.417 C 255.751 117.207,255.166 119.689,254.865 120.934 C 254.066 124.235,253.440 127.280,253.294 128.571 C 253.224 129.194,253.044 130.339,252.894 131.117 C 252.012 135.703,251.125 144.699,251.600 144.244 C 251.697 144.151,251.827 143.578,251.888 142.971 C 252.121 140.664,252.727 137.481,252.893 137.689 C 252.988 137.809,252.995 140.507,252.909 143.686 C 252.753 149.427,252.873 152.593,253.225 152.051 C 253.326 151.895,253.489 149.349,253.588 146.393 C 253.748 141.563,253.892 139.048,254.468 130.976 C 254.624 128.794,255.356 125.259,256.430 121.499 C 257.053 119.316,259.123 110.057,259.123 109.451 C 259.123 109.154,259.219 108.911,259.335 108.911 C 259.452 108.911,259.458 110.661,259.349 112.801 C 259.172 116.269,258.887 126.865,258.733 135.714 C 258.703 137.465,258.778 138.897,258.901 138.897 C 259.023 138.897,259.128 138.801,259.133 138.685 C 259.139 138.568,259.203 137.772,259.276 136.917 C 259.348 136.061,259.538 133.260,259.697 130.693 C 259.856 128.126,260.039 125.198,260.104 124.187 C 260.169 123.175,260.298 121.075,260.389 119.519 C 260.481 117.963,260.736 114.590,260.957 112.023 C 261.177 109.455,261.405 106.631,261.464 105.746 C 261.523 104.860,261.736 103.937,261.938 103.695 C 262.423 103.110,262.495 103.138,262.312 103.838 M267.609 107.269 C 268.117 108.561,269.147 110.891,269.898 112.447 C 272.420 117.670,275.365 124.287,276.949 128.289 C 277.380 129.378,278.432 131.796,279.287 133.663 C 280.141 135.530,281.444 138.458,282.182 140.170 C 282.920 141.881,284.317 144.873,285.286 146.818 C 287.093 150.442,290.966 160.757,290.689 161.205 C 290.605 161.342,290.182 161.525,289.751 161.612 C 289.320 161.698,287.974 162.481,286.761 163.352 C 284.593 164.908,284.535 164.931,283.464 164.610 C 282.015 164.176,280.815 164.439,278.857 165.620 C 276.959 166.764,277.285 167.242,276.256 161.810 C 275.887 159.866,275.249 156.810,274.838 155.021 C 274.427 153.232,273.713 149.859,273.251 147.525 C 272.790 145.191,272.216 142.518,271.975 141.584 C 271.735 140.651,271.306 138.614,271.022 137.058 C 270.531 134.363,269.496 129.281,267.077 117.680 C 266.477 114.802,266.009 112.418,266.037 112.383 C 266.106 112.296,268.398 117.395,270.007 121.216 C 271.344 124.391,272.654 126.875,272.874 126.654 C 273.004 126.524,271.705 122.996,269.882 118.529 C 268.516 115.182,265.348 105.580,265.347 104.785 C 265.346 102.950,266.339 104.041,267.609 107.269 M179.774 139.300 C 190.943 141.290,209.636 150.420,219.781 158.840 C 223.671 162.068,225.059 163.183,226.851 164.515 C 229.251 166.299,235.256 172.449,236.192 174.083 C 236.648 174.879,237.387 175.912,237.834 176.379 C 238.828 177.417,239.479 178.803,239.748 180.452 C 239.860 181.136,240.138 182.146,240.368 182.695 C 240.954 184.097,241.058 187.039,240.599 189.227 C 240.149 191.377,240.167 191.431,241.121 190.806 C 242.132 190.143,242.505 188.788,242.263 186.651 L 242.061 184.866 243.528 186.470 C 244.335 187.353,245.713 188.551,246.589 189.133 C 248.052 190.104,249.184 190.601,254.240 192.497 C 256.415 193.312,258.499 194.810,259.532 196.300 C 260.417 197.577,261.606 197.953,265.768 198.271 C 267.924 198.436,268.048 198.483,268.455 199.293 C 269.615 201.596,268.449 210.771,267.053 210.328 C 266.781 210.242,266.398 210.364,266.202 210.600 C 264.794 212.297,262.473 213.009,256.046 213.716 C 253.809 213.962,251.753 214.284,251.478 214.431 C 251.189 214.586,249.147 214.635,246.635 214.547 C 244.246 214.463,241.973 214.404,241.584 214.416 C 241.195 214.427,238.979 214.487,236.659 214.549 C 233.325 214.637,232.391 214.748,232.207 215.077 C 231.660 216.055,226.325 216.142,222.701 215.232 C 220.642 214.715,220.291 214.694,219.730 215.051 C 217.283 216.608,210.151 217.488,208.058 216.490 C 207.102 216.034,206.936 216.034,205.149 216.489 C 201.497 217.419,200.097 217.558,194.484 217.550 C 189.845 217.543,188.579 217.453,187.456 217.050 C 186.156 216.585,186.067 216.585,185.727 217.049 C 184.842 218.260,175.960 216.715,173.992 215.008 C 173.411 214.505,172.277 214.510,172.277 215.016 C 172.277 216.379,162.701 215.061,159.602 213.270 C 158.429 212.593,158.408 212.595,158.490 213.366 C 158.569 214.115,157.084 214.143,155.951 213.415 C 155.606 213.194,155.009 213.013,154.624 213.013 C 154.238 213.013,153.844 212.885,153.748 212.730 C 153.652 212.574,153.184 212.447,152.708 212.447 C 151.859 212.447,149.100 211.655,147.057 210.825 C 145.884 210.349,143.798 208.355,144.207 208.102 C 144.356 208.010,144.998 208.186,145.634 208.494 C 146.270 208.801,147.019 209.052,147.299 209.052 C 147.579 209.051,146.726 208.507,145.403 207.842 C 141.539 205.900,138.438 203.554,137.605 201.945 C 137.049 200.869,137.054 200.865,138.320 201.301 C 141.285 202.322,142.735 202.034,139.887 200.989 C 137.920 200.268,134.834 198.378,133.735 197.223 L 132.815 196.255 134.189 196.452 C 135.154 196.591,135.506 196.557,135.371 196.340 C 135.266 196.170,135.079 196.093,134.955 196.169 C 134.686 196.336,132.502 195.317,132.247 194.906 C 132.149 194.746,131.966 194.679,131.841 194.757 C 131.491 194.973,128.153 192.726,126.803 191.367 C 126.142 190.701,125.601 190.297,125.601 190.469 C 125.601 190.988,129.111 194.245,130.353 194.879 C 130.995 195.206,131.890 196.020,132.359 196.701 C 133.283 198.045,134.688 199.372,136.020 200.158 C 136.592 200.496,136.928 200.964,137.044 201.583 C 137.286 202.870,139.303 205.006,141.692 206.505 C 143.306 207.518,143.706 207.908,143.706 208.469 C 143.706 208.894,144.124 209.605,144.767 210.274 L 145.827 211.379 143.847 211.185 C 141.058 210.912,135.326 209.396,134.441 208.697 C 134.176 208.487,134.088 208.612,134.088 209.194 C 134.088 209.939,134.063 209.953,133.451 209.534 C 133.101 209.294,132.851 208.945,132.896 208.759 C 133.190 207.541,132.262 207.157,128.520 206.952 C 123.912 206.698,119.661 205.728,119.661 204.929 C 119.661 204.656,119.337 204.526,118.660 204.526 C 117.628 204.526,111.222 201.404,108.716 199.680 C 107.590 198.905,105.575 196.564,104.748 195.069 C 104.152 193.991,103.272 193.393,102.041 193.228 C 100.819 193.065,99.996 191.796,101.112 191.796 C 101.904 191.796,106.216 190.191,108.245 189.141 C 110.632 187.906,111.740 187.799,111.740 188.803 C 111.740 189.815,114.299 192.471,116.141 193.373 C 117.458 194.017,117.680 194.240,117.680 194.916 C 117.680 195.771,119.139 197.793,120.893 199.370 C 121.460 199.880,121.924 200.539,121.924 200.835 C 121.924 201.419,123.122 202.754,124.856 204.102 C 125.456 204.569,126.187 205.196,126.479 205.496 C 126.771 205.796,127.091 205.959,127.191 205.859 C 127.291 205.759,127.643 205.818,127.972 205.989 C 128.748 206.392,128.638 206.286,126.483 204.567 C 124.866 203.276,122.772 201.128,122.772 200.760 C 122.772 200.683,123.556 200.690,124.513 200.777 C 125.788 200.893,126.200 200.848,126.052 200.609 C 125.941 200.430,125.628 200.283,125.356 200.283 C 123.197 200.283,117.108 194.568,118.458 193.810 C 118.918 193.551,118.913 193.519,118.388 193.348 C 117.091 192.928,116.605 192.652,114.914 191.377 C 113.421 190.252,112.306 188.925,112.306 188.274 C 112.306 188.189,112.847 188.107,113.508 188.093 L 114.710 188.067 113.154 187.665 C 110.933 187.091,108.083 186.170,107.404 185.806 L 106.823 185.495 107.450 184.988 C 108.063 184.492,108.030 184.484,106.019 184.673 C 100.570 185.183,94.169 183.983,97.933 183.156 C 99.102 182.899,104.668 180.182,104.668 179.868 C 104.668 179.736,104.445 179.741,104.173 179.880 C 103.362 180.294,97.160 181.679,96.602 181.571 C 95.422 181.342,96.078 180.780,99.500 179.082 C 101.486 178.097,103.516 176.991,104.010 176.625 C 105.177 175.759,108.050 175.928,109.194 176.930 C 111.089 178.589,114.219 179.414,116.404 178.829 C 117.112 178.640,116.910 178.550,114.897 178.153 C 111.029 177.391,109.228 176.294,110.891 175.714 C 112.151 175.275,111.981 175.238,109.194 175.346 C 107.562 175.410,106.648 175.340,106.648 175.152 C 106.648 174.977,106.263 174.921,105.694 175.014 C 104.357 175.230,104.180 174.691,105.462 174.307 C 106.451 174.011,108.911 171.922,108.911 171.379 C 108.911 171.244,108.370 171.411,107.709 171.749 C 104.225 173.530,100.067 173.196,103.231 171.389 C 104.783 170.503,107.775 167.562,107.778 166.920 C 107.779 166.637,107.543 166.725,107.001 167.209 C 104.550 169.399,99.576 171.724,99.576 170.679 C 99.576 170.245,101.579 168.600,102.108 168.600 C 102.491 168.600,102.687 168.416,102.687 168.056 C 102.687 167.755,103.794 166.370,105.163 164.958 C 106.524 163.553,108.338 161.550,109.194 160.506 C 110.861 158.472,114.245 155.107,116.177 153.563 C 116.829 153.043,118.293 151.828,119.432 150.865 C 122.352 148.394,124.921 146.798,126.733 146.329 C 127.588 146.107,128.798 145.631,129.420 145.270 C 134.945 142.071,147.236 140.598,150.020 142.802 C 150.204 142.948,151.245 143.227,152.334 143.424 C 156.373 144.155,157.832 144.554,161.049 145.812 C 162.861 146.521,164.635 147.100,164.991 147.100 C 165.347 147.100,166.973 147.875,168.604 148.822 C 171.291 150.381,173.252 151.468,175.799 152.806 C 176.827 153.347,184.211 155.628,184.381 155.458 C 184.528 155.311,183.343 154.691,179.208 152.752 C 173.432 150.044,171.370 149.010,169.024 147.649 C 167.779 146.927,165.806 145.992,164.639 145.571 C 163.472 145.151,161.839 144.492,161.009 144.106 C 160.179 143.721,158.715 143.139,157.755 142.814 C 156.796 142.488,155.890 142.110,155.743 141.974 C 155.387 141.646,158.937 141.667,162.511 142.015 C 166.823 142.434,167.747 141.889,164.215 141.009 C 162.734 140.640,162.183 140.391,162.390 140.184 C 162.848 139.727,168.430 139.867,171.106 140.403 C 174.139 141.011,174.860 140.842,172.631 140.046 C 172.047 139.838,171.252 139.540,170.863 139.384 L 170.156 139.100 170.863 138.865 C 171.813 138.549,176.972 138.801,179.774 139.300 M251.279 145.969 C 251.279 146.669,251.334 146.955,251.402 146.605 C 251.469 146.255,251.469 145.682,251.402 145.332 C 251.334 144.982,251.279 145.269,251.279 145.969 M77.228 158.913 C 78.239 159.303,81.549 160.483,84.583 161.535 C 90.857 163.709,93.116 164.554,95.332 165.558 C 96.188 165.945,97.748 166.617,98.798 167.049 C 101.072 167.986,101.062 167.942,99.364 169.586 L 98.020 170.887 96.322 170.715 C 91.974 170.276,82.320 167.354,82.320 166.477 C 82.320 165.843,81.198 165.128,80.041 165.024 C 78.477 164.883,77.811 164.494,77.986 163.823 C 78.192 163.037,77.334 161.902,76.391 161.714 C 75.886 161.613,75.382 161.221,75.065 160.685 C 74.783 160.209,74.391 159.881,74.193 159.957 C 73.742 160.130,73.731 159.516,74.166 158.560 C 74.396 158.055,74.638 157.886,74.944 158.015 C 75.189 158.118,76.216 158.522,77.228 158.913 M73.047 162.529 C 73.391 162.924,74.210 163.383,74.868 163.549 C 75.854 163.797,76.096 163.993,76.244 164.669 C 76.457 165.636,77.230 166.240,78.784 166.649 C 79.406 166.812,80.106 167.171,80.339 167.445 C 81.130 168.373,85.739 169.731,91.084 170.610 C 93.204 170.958,94.875 171.415,95.893 171.922 C 96.946 172.447,97.777 172.669,98.444 172.603 C 99.636 172.484,99.507 172.645,97.545 173.725 C 94.211 175.561,94.272 175.541,93.690 175.014 C 93.380 174.734,92.694 174.540,92.009 174.540 C 90.344 174.540,81.791 172.288,80.966 171.632 C 80.767 171.473,80.258 171.313,79.835 171.275 C 77.905 171.102,74.536 169.568,74.633 168.905 C 74.760 168.032,74.000 167.280,72.756 167.046 C 71.304 166.774,71.189 166.648,71.882 166.087 C 72.766 165.371,72.061 164.148,70.174 163.121 C 68.401 162.156,68.551 161.810,70.740 161.810 C 72.189 161.810,72.509 161.910,73.047 162.529 M292.902 163.530 C 293.451 163.854,294.026 164.040,294.181 163.944 C 294.746 163.595,299.638 165.091,304.102 166.978 C 307.101 168.246,308.623 168.499,309.724 167.910 C 313.592 165.845,318.556 164.933,319.635 166.091 L 320.197 166.695 321.082 165.950 C 322.222 164.991,323.416 164.932,323.287 165.842 C 323.237 166.192,322.910 166.604,322.560 166.757 C 322.159 166.933,321.924 167.283,321.924 167.704 C 321.924 169.244,320.581 170.537,319.378 170.156 C 318.958 170.022,318.812 170.105,318.812 170.476 C 318.812 170.865,318.736 170.901,318.472 170.636 C 317.919 170.083,317.680 170.243,317.680 171.165 C 317.680 171.904,317.596 172.006,317.115 171.853 C 316.713 171.725,316.549 171.802,316.549 172.117 C 316.549 172.361,316.421 172.560,316.266 172.560 C 316.110 172.560,315.983 172.812,315.983 173.120 C 315.983 174.004,315.110 175.955,314.714 175.955 C 314.517 175.955,314.208 176.132,314.029 176.348 C 313.154 177.402,311.322 177.043,309.743 175.509 C 308.382 174.187,307.311 173.912,305.600 174.444 C 303.613 175.062,298.976 174.833,297.435 174.041 C 296.802 173.716,295.560 173.195,294.674 172.884 C 292.802 172.226,286.692 167.777,286.211 166.722 C 285.263 164.643,290.530 162.130,292.902 163.530 M87.864 174.669 C 93.332 175.945,93.145 175.887,92.933 176.230 C 92.680 176.638,89.429 178.501,88.968 178.501 C 88.448 178.501,87.694 179.603,87.694 180.362 C 87.694 181.100,83.648 181.232,82.793 180.522 C 82.252 180.073,82.622 179.066,83.329 179.066 C 83.561 179.066,83.828 178.869,83.920 178.628 C 84.168 177.982,82.934 176.803,82.011 176.803 C 79.987 176.803,77.385 174.984,78.286 174.199 C 79.478 173.161,81.915 173.280,87.864 174.669 M102.220 174.540 C 102.751 175.007,103.329 175.389,103.503 175.389 C 104.715 175.389,103.607 176.013,98.260 178.342 C 93.143 180.571,87.054 180.947,91.259 178.775 C 92.021 178.381,93.663 177.494,94.908 176.804 C 97.382 175.431,100.730 173.746,101.051 173.713 C 101.162 173.701,101.688 174.074,102.220 174.540 M92.838 182.861 C 93.255 183.078,94.019 183.349,94.535 183.461 C 95.052 183.574,95.832 183.967,96.271 184.334 C 97.694 185.528,100.690 186.242,103.056 185.951 C 105.164 185.692,105.425 185.750,107.046 186.840 L 107.869 187.394 106.763 187.890 C 106.155 188.163,105.486 188.390,105.276 188.394 C 105.066 188.398,104.493 188.573,104.003 188.783 C 100.107 190.450,96.786 191.089,96.461 190.234 C 96.079 189.228,95.253 189.130,94.048 189.947 C 92.190 191.208,90.665 190.534,90.665 188.454 C 90.665 187.577,90.502 187.332,89.452 186.623 C 87.807 185.512,87.286 184.677,87.618 183.680 C 88.011 182.502,91.194 182.003,92.838 182.861 M67.111 189.895 C 68.277 190.850,75.615 191.803,77.139 191.197 L 77.935 190.880 77.228 190.654 C 76.839 190.529,74.675 190.280,72.419 190.099 C 70.163 189.919,67.935 189.709,67.468 189.632 C 66.700 189.506,66.666 189.531,67.111 189.895 M237.553 192.549 C 236.501 193.103,236.571 193.549,237.694 193.441 C 238.399 193.373,238.635 193.204,238.704 192.716 C 238.807 191.994,238.650 191.971,237.553 192.549 M235.549 193.682 C 235.446 193.786,235.361 194.115,235.361 194.413 C 235.361 195.147,236.044 194.885,236.158 194.108 C 236.246 193.513,235.935 193.296,235.549 193.682 M117.115 208.192 C 116.337 208.318,116.236 208.398,116.643 208.561 C 117.357 208.848,118.180 208.822,118.375 208.506 C 118.619 208.112,118.218 208.012,117.115 208.192 M129.844 222.515 C 129.844 223.339,129.819 223.326,132.983 224.161 C 134.446 224.548,136.726 225.178,138.048 225.563 C 142.721 226.920,145.169 227.294,145.594 226.712 C 145.982 226.183,148.572 226.445,153.007 227.463 C 154.170 227.730,154.654 227.735,155.057 227.483 C 155.593 227.149,164.894 227.217,170.863 227.600 C 174.322 227.821,174.636 227.857,174.970 228.062 C 175.122 228.156,176.711 228.320,178.501 228.428 C 184.062 228.760,184.575 228.795,184.866 228.859 C 185.021 228.893,186.358 228.898,187.836 228.870 C 191.297 228.804,190.512 228.443,185.609 227.847 C 183.644 227.608,179.873 227.104,177.228 226.727 C 174.583 226.350,170.064 225.908,167.185 225.744 C 160.557 225.369,159.399 225.178,155.786 223.864 C 154.983 223.572,154.566 223.552,154.134 223.783 C 153.705 224.013,153.330 223.999,152.685 223.732 C 152.206 223.534,151.283 223.404,150.634 223.444 C 149.939 223.487,148.489 223.205,147.114 222.760 C 144.594 221.944,143.423 222.063,143.423 223.136 C 143.423 224.881,141.166 224.782,132.993 222.677 L 129.844 221.866 129.844 222.515 " fill="#1c1c1c" fill-rule="evenodd"/>
  </g>
</svg>